<?xml version="1.0" standalone="no"?>
<!DOCTYPE svg PUBLIC "-//W3C//DTD SVG 20010904//EN"
 "http://www.w3.org/TR/2001/REC-SVG-20010904/DTD/svg10.dtd">
<svg version="1.0" xmlns="http://www.w3.org/2000/svg"
 width="204.000000pt" height="204.000000pt" viewBox="0 0 204.000000 204.000000"
 preserveAspectRatio="xMidYMid meet">

<g transform="translate(0.000000,204.000000) scale(0.100000,-0.100000)"
fill="#000000" stroke="none">
<path d="M804 1910 c-406 -106 -682 -443 -701 -855 -21 -459 286 -855 738
-950 114 -24 288 -20 403 10 96 25 223 79 281 119 287 200 431 479 420 811
-15 416 -295 760 -705 865 -107 27 -333 27 -436 0z m436 -53 c214 -60 387
-184 505 -362 105 -158 145 -290 145 -481 0 -245 -82 -447 -250 -614 -130
-130 -291 -214 -468 -245 -447 -78 -877 201 -993 645 -33 129 -31 322 6 445
96 323 340 551 665 620 85 18 314 13 390 -8z"/>
<path d="M843 1824 c-35 -7 -97 -27 -138 -44 -455 -190 -645 -725 -413 -1161
226 -426 773 -568 1180 -307 186 119 318 314 372 551 15 63 7 271 -13 347 -83
319 -338 560 -656 619 -79 15 -256 12 -332 -5z m386 -26 c493 -129 748 -678
526 -1134 -111 -229 -302 -384 -550 -444 -122 -30 -300 -24 -420 14 -251 80
-451 276 -534 523 -27 80 -31 103 -38 214 -18 298 131 577 394 737 187 114
410 146 622 90z"/>
<path d="M924 1779 c-224 -29 -429 -158 -551 -348 -263 -409 -88 -959 362
-1137 118 -47 187 -58 328 -51 193 9 346 73 485 202 391 364 312 991 -158
1249 -83 45 -172 72 -285 85 -98 12 -93 12 -181 0z m315 -189 c-25 -108 -45
-175 -63 -210 -9 -18 -13 -36 -11 -41 3 -4 0 -17 -7 -28 -12 -19 -12 -19 -35
6 -78 84 -68 119 81 281 22 23 41 41 42 39 2 -1 -2 -23 -7 -47z m59 -2 l20
-53 -21 -35 c-17 -28 -18 -32 -4 -21 15 12 17 11 17 -6 0 -11 -11 -45 -25 -74
l-25 -54 5 48 c8 64 -1 59 -15 -8 -8 -40 -18 -60 -36 -72 -27 -17 -43 -11 -26
10 7 8 14 32 17 55 3 23 13 63 23 89 10 27 17 56 14 66 -2 10 2 25 9 33 6 8
12 28 11 44 -1 45 13 36 36 -22z m-397 -144 c9 -8 38 -21 65 -30 55 -19 116
-72 135 -117 11 -25 11 -31 0 -35 -11 -4 -11 -6 0 -12 8 -6 -1 -11 -27 -16
-32 -6 -35 -8 -19 -15 11 -4 27 -8 35 -8 13 -1 13 0 0 9 -10 7 -11 10 -2 10
13 0 28 -27 20 -35 -2 -3 -20 0 -39 4 -48 13 -189 20 -183 9 6 -10 -8 -11 -31
-1 -15 5 -14 8 6 19 33 18 6 17 -38 -1 -42 -18 -46 -18 -37 -4 4 8 0 8 -15 0
-25 -14 -28 -23 -3 -14 15 6 16 5 2 -12 -15 -18 -14 -19 10 -2 13 9 31 17 40
17 8 0 0 -9 -17 -20 -46 -28 -41 -34 7 -9 23 12 43 19 46 16 3 -3 -16 -17 -43
-31 -27 -13 -56 -32 -64 -42 -13 -16 -12 -16 18 -1 51 27 52 20 3 -13 -46 -30
-66 -38 -55 -20 4 6 -1 7 -11 3 -15 -6 -16 -8 -3 -16 13 -8 11 -14 -10 -38
-14 -16 -32 -29 -39 -29 -12 0 -12 -3 -1 -17 12 -15 12 -16 -6 -9 -51 21 -58
20 -53 -2 6 -23 -10 -30 -27 -13 -6 5 -21 12 -35 16 l-25 8 20 -23 20 -23 -21
11 c-15 8 -24 8 -32 0 -8 -8 -16 -7 -28 3 -10 8 -15 9 -11 3 9 -16 -18 -26
-48 -18 -13 3 -30 2 -37 -2 -7 -5 -23 -10 -35 -11 -16 -3 -20 1 -16 14 10 39
61 99 103 123 40 22 57 25 152 25 89 0 104 2 95 14 -6 7 -11 37 -11 66 1 61
28 119 80 178 19 20 34 45 34 54 0 10 12 27 28 39 29 24 73 23 103 -2z m569
-144 c52 -26 77 -54 106 -115 41 -87 26 -209 -31 -239 -11 -6 -25 -18 -32 -28
-9 -11 -27 -16 -60 -15 -35 0 -41 2 -25 8 12 5 22 10 22 11 0 2 -33 3 -72 4
-70 1 -71 0 -38 -12 19 -7 28 -13 20 -13 -29 -1 -96 36 -123 68 -15 18 -27 28
-27 22 0 -6 15 -27 32 -48 24 -28 26 -33 8 -18 -32 26 -46 44 -64 80 -8 17
-28 44 -45 60 -38 38 -39 66 -1 131 36 64 91 111 145 123 55 13 139 5 185 -19z
m-390 -116 c17 -3 28 -9 25 -14 -3 -5 -20 -4 -38 1 -17 5 -48 9 -67 9 -26 0
-31 3 -20 10 14 9 25 9 100 -6z m15 -34 c7 -11 -9 -11 -45 0 -24 8 -24 8 7 9
17 1 35 -3 38 -9z m-116 -11 c104 -18 163 -70 198 -173 25 -74 22 -140 -9
-208 -27 -58 -68 -96 -89 -82 -7 4 -9 3 -6 -3 17 -28 -107 -37 -140 -11 -7 5
-26 7 -44 3 -18 -4 -29 -3 -26 2 3 5 -25 23 -63 41 -38 18 -75 42 -81 53 -8
15 -8 19 0 15 8 -5 8 0 0 18 -7 14 -15 23 -20 21 -13 -9 -20 31 -10 56 8 20
10 21 10 5 1 -25 7 -18 15 19 5 22 4 26 -4 15 -8 -13 -10 -12 -10 3 0 26 -20
11 -21 -16 -1 -19 -2 -19 -6 -3 -6 24 23 102 54 143 31 42 84 82 130 99 47 16
43 16 122 3z m-321 -258 l-2 -70 -60 -10 c-42 -8 -62 -8 -64 -1 -3 7 -9 7 -18
-1 -22 -18 -119 18 -165 62 -21 21 -39 43 -39 49 0 7 21 11 58 10 31 -1 73 3
92 9 19 6 55 11 79 11 43 0 44 0 26 -20 -10 -11 -14 -20 -8 -20 5 0 18 9 27
19 10 11 30 22 45 24 14 2 27 5 29 6 1 0 2 -30 0 -68z m904 -18 c15 -15 28
-31 28 -37 0 -5 6 -17 14 -25 8 -9 17 -28 21 -43 6 -22 3 -27 -17 -31 -20 -4
-20 -4 5 -6 27 -1 28 -4 25 -38 -3 -37 -15 -52 -64 -80 -24 -13 -105 -6 -116
11 -5 7 -8 7 -8 1 0 -18 -91 -16 -119 2 -15 10 -32 18 -39 19 -23 4 -117 98
-114 114 2 8 12 24 22 35 9 11 15 26 13 33 -3 6 0 12 6 12 6 0 11 -10 11 -22
1 -21 2 -21 11 -5 13 23 30 22 84 -5 33 -17 50 -34 65 -67 12 -24 23 -41 26
-38 3 3 -2 19 -10 36 -9 16 -16 33 -16 36 0 10 75 -26 97 -47 13 -12 26 -19
29 -15 4 3 28 -5 55 -18 56 -29 60 -30 53 -11 -3 8 -17 17 -31 21 -16 4 -23
11 -19 20 5 15 1 17 -79 31 -33 6 -36 8 -18 13 37 10 12 28 -49 35 -67 9 -70
29 -6 46 22 6 54 20 71 31 40 24 36 24 69 -8z m-831 -140 c13 -16 12 -17 -3
-4 -10 7 -18 15 -18 17 0 8 8 3 21 -13z m216 -89 c-3 -3 -12 -4 -19 -1 -8 3
-5 6 6 6 11 1 17 -2 13 -5z m-60 -10 c-3 -3 -12 -4 -19 -1 -8 3 -5 6 6 6 11 1
17 -2 13 -5z"/>
<path d="M852 1429 c2 -7 10 -15 17 -17 8 -3 12 1 9 9 -2 7 -10 15 -17 17 -8
3 -12 -1 -9 -9z"/>
<path d="M707 1273 c-12 -23 -16 -63 -6 -63 8 0 7 -5 -2 -17 -11 -16 -11 -16
1 -5 8 7 15 18 15 24 0 6 6 13 14 16 9 3 11 0 6 -8 -5 -8 -4 -11 3 -7 5 4 8
16 5 27 -6 23 -29 44 -36 33z"/>
<path d="M1058 1263 c7 -3 16 -2 19 1 4 3 -2 6 -13 5 -11 0 -14 -3 -6 -6z"/>
<path d="M985 1240 c-18 -8 -17 -9 8 -9 15 -1 27 4 27 9 0 12 -8 12 -35 0z"/>
<path d="M1413 1171 c-22 -25 -24 -25 -37 -8 -14 18 -14 18 -19 0 -4 -16 -5
-16 -6 0 -1 19 -21 24 -21 5 0 -9 -3 -8 -10 2 -7 12 -11 10 -18 -10 -14 -38
22 -140 50 -140 5 0 6 5 3 10 -4 6 5 5 20 -2 18 -8 22 -14 13 -20 -7 -4 -21
-5 -32 -2 -12 4 -16 2 -11 -5 4 -7 20 -9 43 -5 47 8 50 11 27 28 -18 13 -17
14 8 14 15 0 34 5 42 12 14 11 12 16 -16 41 -33 29 -36 61 -6 67 12 3 22 -7
32 -32 9 -20 20 -36 25 -36 13 0 13 37 0 45 -5 3 -10 18 -10 32 0 19 -4 24
-16 19 -9 -4 -22 -2 -28 2 -7 6 -19 0 -33 -17z m-43 -93 c0 -4 -7 -5 -15 -2
-8 4 -15 16 -15 27 0 20 0 20 15 1 8 -10 15 -22 15 -26z"/>
<path d="M1280 1084 c0 -5 7 -19 15 -30 20 -26 19 -39 -2 -24 -10 7 -1 -4 19
-24 21 -20 32 -36 26 -36 -7 0 -25 12 -41 27 -23 23 -27 24 -21 8 7 -18 6 -19
-12 -5 -15 11 -16 11 -6 0 6 -8 12 -19 12 -24 -1 -6 -10 0 -20 13 -11 13 -20
19 -20 15 0 -19 63 -75 77 -70 8 3 33 8 56 11 33 4 36 3 17 -4 -14 -5 -19 -9
-11 -10 20 -1 81 21 81 30 0 4 -21 5 -47 4 -27 -2 -42 0 -34 2 9 4 1 11 -20
20 -24 10 -30 16 -20 22 7 5 9 10 3 12 -5 2 -19 20 -31 39 -11 19 -21 30 -21
24z m48 -120 c15 -7 20 -14 12 -14 -8 0 -26 10 -40 21 -14 11 -19 18 -12 14 6
-3 24 -13 40 -21z m-22 -22 c-4 -3 -14 2 -24 12 -16 18 -16 18 6 6 13 -6 21
-14 18 -18z"/>
<path d="M1395 980 c3 -5 12 -10 20 -10 8 0 17 5 20 10 4 6 -5 10 -20 10 -15
0 -24 -4 -20 -10z"/>
<path d="M1471 934 c5 -6 5 -14 1 -19 -4 -4 3 -2 16 4 29 15 28 29 -2 27 -16
-1 -21 -5 -15 -12z"/>
<path d="M947 1105 c-20 -19 -17 -42 4 -36 8 2 19 3 24 3 6 -1 28 -4 50 -6 26
-3 34 -2 25 5 -8 5 -25 9 -36 9 -12 0 -28 10 -36 21 -13 21 -15 21 -31 4z"/>
<path d="M974 1039 c-3 -6 -1 -16 5 -22 8 -8 11 -5 11 11 0 24 -5 28 -16 11z"/>
<path d="M867 974 c-20 -41 -11 -68 27 -78 18 -4 32 0 50 18 34 31 34 55 1 48
-22 -4 -25 -1 -25 22 0 40 -33 34 -53 -10z"/>
<path d="M994 955 c-9 -21 16 -51 27 -33 13 20 11 35 -6 42 -9 3 -18 -1 -21
-9z"/>
<path d="M721 881 c0 -7 9 -24 22 -36 12 -13 38 -39 57 -59 19 -20 41 -36 49
-36 7 0 -4 13 -27 30 -37 26 -62 57 -62 75 0 3 4 3 10 0 6 -3 7 1 3 10 -5 13
-7 14 -14 3 -7 -10 -9 -10 -9 2 0 13 -2 13 -9 1 -7 -11 -10 -10 -14 5 -2 10
-5 13 -6 5z"/>
<path d="M789 862 c5 -10 18 -25 28 -33 12 -10 11 -5 -6 19 -24 35 -38 43 -22
14z"/>
<path d="M795 822 c11 -13 29 -28 40 -34 21 -11 18 -8 -30 32 -29 24 -29 24
-10 2z"/>
<path d="M751 800 c25 -39 90 -80 134 -85 36 -5 35 -3 -14 12 -36 11 -68 30
-95 57 -24 24 -34 30 -25 16z"/>
<path d="M854 806 c11 -9 24 -16 30 -16 12 0 7 5 -24 19 -24 11 -24 11 -6 -3z"/>
<path d="M870 770 c8 -5 22 -9 30 -9 10 0 8 3 -5 9 -27 12 -43 12 -25 0z"/>
<path d="M933 753 c9 -2 25 -2 35 0 9 3 1 5 -18 5 -19 0 -27 -2 -17 -5z"/>
<path d="M923 733 c15 -2 39 -2 55 0 15 2 2 4 -28 4 -30 0 -43 -2 -27 -4z"/>
<path d="M978 713 c6 -2 18 -2 25 0 6 3 1 5 -13 5 -14 0 -19 -2 -12 -5z"/>
<path d="M988 693 c7 -3 16 -2 19 1 4 3 -2 6 -13 5 -11 0 -14 -3 -6 -6z"/>
<path d="M1008 673 c7 -3 16 -2 19 1 4 3 -2 6 -13 5 -11 0 -14 -3 -6 -6z"/>
<path d="M1008 653 c7 -3 16 -2 19 1 4 3 -2 6 -13 5 -11 0 -14 -3 -6 -6z"/>
<path d="M594 898 l-19 -23 23 19 c21 18 27 26 19 26 -2 0 -12 -10 -23 -22z"/>
<path d="M559 853 c-13 -16 -12 -17 4 -4 9 7 17 15 17 17 0 8 -8 3 -21 -13z"/>
</g>
</svg>
